STARTFONT 2.1
FONT -Monotype-Nimrod-Bold-R-Normal--33-240-100-100-P-200-iso8859-5
SIZE 24 100 100
FONTBOUNDINGBOX 41 39 -2 -7

STARTPROPERTIES 24
FOUNDRY "Monotype"
FAMILY_NAME "Nimrod"
WEIGHT_NAME "Bold"
SLANT "R"
SETWIDTH_NAME "Normal"
ADD_STYLE_NAME ""
PIXEL_SIZE 33
POINT_SIZE 240
RESOLUTION_X 100
RESOLUTION_Y 100
SPACING "P"
AVERAGE_WIDTH 200
CHARSET_REGISTRY "iso8859"
CHARSET_ENCODING "5"
FACE_NAME "Nimrod Bold ISO Latin Cyrillic"
_DEC_DEVICE_FONTNAMES "PS=nimrod-b-latcyrillic"
COPYRIGHT "Copyright (c) 1993 Monotype Typography Ltd."
CAP_HEIGHT 28
X_HEIGHT 21
WEIGHT 10
QUAD_WIDTH 24
DEFAULT_CHAR 160
FONT_DESCENT 7
FONT_ASCENT 32
ENDPROPERTIES

CHARS 191

STARTCHAR space
ENCODING 32
SWIDTH 250 0
DWIDTH 8 0
BBX 0 0 0 0
BITMAP
ENDCHAR

STARTCHAR exclam
ENCODING 33
SWIDTH 323 0
DWIDTH 11 0
BBX 6 26 2 0
BITMAP
10
78
FC
FC
FC
FC
F8
F8
78
78
78
70
70
70
30
20
20
20
00
00
30
78
FC
FC
78
30
ENDCHAR

STARTCHAR quotedbl
ENCODING 34
SWIDTH 552 0
DWIDTH 18 0
BBX 13 10 3 12
BITMAP
7070
F8F8
F8F8
F8F8
7070
7070
7070
7070
2020
2020
ENDCHAR

STARTCHAR numbersign
ENCODING 35
SWIDTH 667 0
DWIDTH 22 0
BBX 20 23 1 0
BITMAP
0180C0
0181C0
0381C0
038180
030180
030180
030380
FFFFF0
FFFFF0
060300
060300
060700
0E0600
0C0600
0C0600
FFFFF0
FFFFF0
1C0C00
180C00
180C00
181C00
381C00
381800
ENDCHAR

STARTCHAR dollar
ENCODING 36
SWIDTH 542 0
DWIDTH 18 0
BBX 16 29 1 -4
BITMAP
0180
0180
0FF8
1FBC
398E
718F
719F
719F
799E
7F80
7F80
3FC0
1FF0
0FFC
03FE
01FE
01BF
719F
F98F
F98F
F98F
F18E
719E
39BC
1FF0
0380
0180
0180
0180
ENDCHAR

STARTCHAR percent
ENCODING 37
SWIDTH 1000 0
DWIDTH 33 0
BBX 26 24 4 -1
BITMAP
1F003800
7BC03000
71C06000
F1E06000
F1E0C000
F1E08000
F1E18000
F1E30000
F1E30000
71C60000
7BC60000
1F0C3E00
0008F780
0018E380
0031E3C0
0031E3C0
0061E3C0
0061E3C0
00C1E3C0
0081E3C0
0180E380
0300F780
03003E00
06000000
ENDCHAR

STARTCHAR ampersand
ENCODING 38
SWIDTH 865 0
DWIDTH 29 0
BBX 27 25 1 0
BITMAP
003E0000
00FF8000
01E3C000
03C1E000
03C1E000
03C1E000
03C1C000
03E3C000
03E78000
01FE0000
01F00000
03F87FE0
0F7C7FE0
3C7C0F00
7C7E0E00
783F0C00
F83F0C00
F81F9800
FC0FF000
FC07E060
FE07F040
7F03F8C0
7F87FFC0
1FFEFF80
0FF03F00
ENDCHAR

STARTCHAR quoteright
ENCODING 39
SWIDTH 323 0
DWIDTH 11 0
BBX 6 11 2 14
BITMAP
70
F8
FC
FC
FC
7C
0C
18
30
E0
40
ENDCHAR

STARTCHAR parenleft
ENCODING 40
SWIDTH 385 0
DWIDTH 13 0
BBX 10 31 2 -6
BITMAP
00C0
01C0
0380
0700
0F00
1E00
1E00
3C00
7C00
7C00
7C00
F800
F800
F800
F800
F800
F800
F800
F800
7800
7C00
7C00
3C00
3E00
1E00
0E00
0700
0780
0180
00C0
0040
ENDCHAR

STARTCHAR parenright
ENCODING 41
SWIDTH 385 0
DWIDTH 13 0
BBX 10 31 1 -6
BITMAP
C000
E000
7000
3800
3C00
1E00
1E00
0F00
0F80
0F80
0780
07C0
07C0
07C0
07C0
07C0
07C0
07C0
07C0
07C0
0F80
0F80
0F00
0F00
1E00
1C00
3800
7800
6000
C000
8000
ENDCHAR

STARTCHAR asterisk
ENCODING 42
SWIDTH 552 0
DWIDTH 18 0
BBX 16 15 1 10
BITMAP
0380
03C0
03C0
03C0
63C6
F99F
FDBF
FF7F
799E
0340
0E70
1E78
3E7C
3E7C
1C38
ENDCHAR

STARTCHAR plus
ENCODING 43
SWIDTH 667 0
DWIDTH 22 0
BBX 17 17 3 2
BITMAP
01C000
01C000
01C000
01C000
01C000
01C000
01C000
FFFF80
FFFF80
FFFF80
01C000
01C000
01C000
01C000
01C000
01C000
01C000
ENDCHAR

STARTCHAR comma
ENCODING 44
SWIDTH 323 0
DWIDTH 11 0
BBX 6 11 2 -5
BITMAP
70
F8
FC
FC
FC
7C
0C
18
30
E0
40
ENDCHAR

STARTCHAR minus
ENCODING 45
SWIDTH 667 0
DWIDTH 22 0
BBX 18 3 2 9
BITMAP
FFFFC0
FFFFC0
FFFFC0
ENDCHAR

STARTCHAR period
ENCODING 46
SWIDTH 323 0
DWIDTH 11 0
BBX 6 6 2 0
BITMAP
30
78
FC
FC
78
30
ENDCHAR

STARTCHAR slash
ENCODING 47
SWIDTH 552 0
DWIDTH 18 0
BBX 16 28 1 -1
BITMAP
0007
0007
000E
000E
001C
001C
0038
0038
0070
0070
00E0
00E0
01C0
01C0
0380
0380
0700
0700
0E00
0E00
1C00
1C00
3800
3800
7000
7000
E000
E000
ENDCHAR

STARTCHAR zero
ENCODING 48
SWIDTH 594 0
DWIDTH 20 0
BBX 17 23 1 0
BITMAP
03E000
0FF800
1E3C00
3C1E00
7C1F00
7C1F00
780F80
F80F80
F80F80
F80F80
F80F80
F80F80
F80F80
F80F80
F80F80
F80F80
7C0F00
7C1F00
7C1F00
3C1E00
1E3C00
0FF800
03E000
ENDCHAR

STARTCHAR one
ENCODING 49
SWIDTH 594 0
DWIDTH 20 0
BBX 14 23 2 0
BITMAP
00C0
03C0
FFC0
FFC0
07C0
07C0
07C0
07C0
07C0
07C0
07C0
07C0
07C0
07C0
07C0
07C0
07C0
07C0
07C0
07C0
07C0
7FFC
7FFC
ENDCHAR

STARTCHAR two
ENCODING 50
SWIDTH 594 0
DWIDTH 20 0
BBX 17 23 1 0
BITMAP
07F000
1FFC00
387E00
703F00
781F00
781F00
7C1F00
7C1F00
3C3F00
103E00
007C00
007C00
00F000
01E000
03C000
070180
0E0180
1C0300
300700
3FFF00
7FFF00
FFFF00
FFFF00
ENDCHAR

STARTCHAR three
ENCODING 51
SWIDTH 594 0
DWIDTH 20 0
BBX 17 23 1 0
BITMAP
03F000
1FFC00
3C3E00
381F00
781F00
7C1F00
3C1F00
181F00
001E00
003C00
07E000
07F800
003E00
001F00
000F80
700F80
F80F80
F80F80
F00F80
701F00
783E00
3FFC00
07E000
ENDCHAR

STARTCHAR four
ENCODING 52
SWIDTH 594 0
DWIDTH 20 0
BBX 17 23 1 0
BITMAP
001C00
003C00
003C00
007C00
00FC00
01FC00
037C00
077C00
067C00
0C7C00
187C00
307C00
607C00
607C00
807C00
FFFF80
FFFF80
007C00
007C00
007C00
007C00
07FF80
07FF80
ENDCHAR

STARTCHAR five
ENCODING 53
SWIDTH 594 0
DWIDTH 20 0
BBX 17 23 1 0
BITMAP
1FFF00
1FFF00
1FFF00
1FFE00
300000
300000
300000
33F000
37FC00
387E00
201F00
001F80
000F80
000F80
700F80
F80F80
F80F80
F80F80
F01F00
701F00
783E00
1FF800
07E000
ENDCHAR

STARTCHAR six
ENCODING 54
SWIDTH 594 0
DWIDTH 20 0
BBX 17 23 1 0
BITMAP
01FC00
07FF00
1F0700
3E0F80
3C0F80
7C0700
780000
F80000
F87800
FBFE00
FBFF00
FE3F00
FC1F80
F80F80
F80F80
F80F80
F80F80
780F80
7C0F00
3C1F00
1E3E00
0FFC00
03E000
ENDCHAR

STARTCHAR seven
ENCODING 55
SWIDTH 594 0
DWIDTH 20 0
BBX 16 23 2 0
BITMAP
7FFF
7FFF
FFFE
FFFE
E004
C00C
C018
C018
0030
0030
0070
00E0
00E0
01E0
01C0
03C0
03C0
07C0
07C0
07C0
07C0
0780
0780
ENDCHAR

STARTCHAR eight
ENCODING 56
SWIDTH 594 0
DWIDTH 20 0
BBX 16 23 2 0
BITMAP
07E0
3FFC
7C3E
781E
F81F
F81F
F81F
781F
781E
3C3C
07E0
1FF8
3C3E
781F
F81F
F81F
F81F
F81F
F81F
7C1E
3C3C
1FF8
07E0
ENDCHAR

STARTCHAR nine
ENCODING 57
SWIDTH 594 0
DWIDTH 20 0
BBX 17 23 1 0
BITMAP
07E000
1FF800
3E3C00
7C1E00
7C0F00
F80F00
F80F80
F80F80
F80F80
FC0F80
FC1F80
7E3F80
3FF780
1FEF80
070F80
000F80
000F00
701F00
F81E00
F83E00
787C00
3FF000
0F8000
ENDCHAR

STARTCHAR colon
ENCODING 58
SWIDTH 323 0
DWIDTH 11 0
BBX 6 18 2 0
BITMAP
30
78
FC
FC
78
30
00
00
00
00
00
00
30
78
FC
FC
78
30
ENDCHAR

STARTCHAR semicolon
ENCODING 59
SWIDTH 323 0
DWIDTH 11 0
BBX 6 23 2 -5
BITMAP
30
78
FC
FC
78
30
00
00
00
00
00
00
30
F8
FC
FC
FC
7C
0C
18
30
E0
40
ENDCHAR

STARTCHAR less
ENCODING 60
SWIDTH 667 0
DWIDTH 22 0
BBX 18 17 2 2
BITMAP
0000C0
0007C0
001FC0
007E00
03F800
0FC000
7F0000
F80000
F00000
FE0000
1F8000
07F000
00FC00
003F00
000FC0
0001C0
000040
ENDCHAR

STARTCHAR equal
ENCODING 61
SWIDTH 667 0
DWIDTH 22 0
BBX 18 11 2 5
BITMAP
FFFFC0
FFFFC0
FFFFC0
000000
000000
000000
000000
000000
FFFFC0
FFFFC0
FFFFC0
ENDCHAR

STARTCHAR greater
ENCODING 62
SWIDTH 667 0
DWIDTH 22 0
BBX 18 17 2 2
BITMAP
C00000
F80000
FE0000
1F8000
07F000
00FC00
003F00
0007C0
0003C0
001FC0
007E00
03F800
0FC000
7F0000
FC0000
E00000
800000
ENDCHAR

STARTCHAR question
ENCODING 63
SWIDTH 500 0
DWIDTH 17 0
BBX 14 26 1 0
BITMAP
0FC0
3FF0
70F8
F07C
F87C
F87C
F87C
787C
207C
00F8
00F0
01E0
01C0
0380
0300
0300
0200
0200
0000
0000
0300
0780
0FC0
0FC0
0780
0300
ENDCHAR

STARTCHAR at
ENCODING 64
SWIDTH 927 0
DWIDTH 31 0
BBX 28 29 2 -7
BITMAP
001FE000
00F01C00
01800200
07000100
0C000080
18000040
18000040
300F7860
201CB820
6038F820
6070F020
40F0F020
C0E0F020
C1E1E020
C1E1E020
C3C1E040
C3C3E040
C3C7C080
43CBC100
43FBC310
61F3CC10
21C1F020
30000020
10000040
08000080
04000300
03000600
00C03800
003FC000
ENDCHAR

STARTCHAR A
ENCODING 65
SWIDTH 854 0
DWIDTH 28 0
BBX 26 25 1 0
BITMAP
000E0000
000E0000
001F0000
001F0000
003F0000
003F8000
007F8000
006FC000
00EFC000
00C7C000
00C7E000
0183E000
0183F000
0303F000
0301F000
0601F800
07FFF800
07FFFC00
0C00FC00
0C007E00
18007E00
1C003E00
3C007F00
FF83FFC0
FF83FFC0
ENDCHAR

STARTCHAR B
ENCODING 66
SWIDTH 792 0
DWIDTH 26 0
BBX 24 25 1 0
BITMAP
FFFFC0
FFFFF0
1F81FC
1F80FC
1F807E
1F807E
1F807E
1F807E
1F807C
1F80F8
1F81F0
1FFF00
1FFFF0
1F81FC
1F807E
1F807F
1F803F
1F803F
1F803F
1F803F
1F807F
1F807E
1F81FC
FFFFF8
FFFFE0
ENDCHAR

STARTCHAR C
ENCODING 67
SWIDTH 750 0
DWIDTH 25 0
BBX 22 25 2 0
BITMAP
007F80
03FFF0
0FC0F8
1F8078
3F0038
3F0038
7E0018
7E0018
FE0018
FC0000
FC0000
FC0000
FC0000
FC0000
FC0000
FC0000
FE000C
7E001C
7E0018
7F0018
3F0030
1F8070
0FE1E0
07FF80
01FF00
ENDCHAR

STARTCHAR D
ENCODING 68
SWIDTH 823 0
DWIDTH 27 0
BBX 24 25 1 0
BITMAP
FFFF00
FFFFE0
1F83F0
1F80F8
1F80FC
1F807E
1F807E
1F803E
1F803F
1F803F
1F803F
1F803F
1F803F
1F803F
1F803F
1F803F
1F803F
1F803E
1F807E
1F807E
1F80FC
1F80F8
1F83F0
FFFFC0
FFFE00
ENDCHAR

STARTCHAR E
ENCODING 69
SWIDTH 750 0
DWIDTH 25 0
BBX 22 25 1 0
BITMAP
FFFFF8
FFFFF8
1F80F8
1F8038
1F8038
1F8018
1F8018
1F8308
1F8300
1F8700
1F8F00
1FFF00
1FFF00
1F8F00
1F8700
1F8300
1F830C
1F830C
1F800C
1F801C
1F801C
1F803C
1F80FC
FFFFFC
FFFFFC
ENDCHAR

STARTCHAR F
ENCODING 70
SWIDTH 698 0
DWIDTH 23 0
BBX 21 25 1 0
BITMAP
FFFFF8
FFFFF8
1F80F8
1F8038
1F8038
1F8018
1F8018
1F8308
1F8300
1F8700
1F8F00
1FFF00
1FFF00
1F8F00
1F8700
1F8300
1F8300
1F8300
1F8000
1F8000
1F8000
1F8000
1F8000
FFFC00
FFFC00
ENDCHAR

STARTCHAR G
ENCODING 71
SWIDTH 854 0
DWIDTH 28 0
BBX 26 25 2 0
BITMAP
007FC000
03FFF800
07C0FC00
0F803C00
1F001C00
3E001C00
7E000C00
7E000C00
7E000C00
FC000000
FC000000
FC000000
FC000000
FC07FFC0
FC07FFC0
FC007E00
FE007E00
7E007E00
7E007E00
3F007E00
3F007E00
1F807E00
0FE0FC00
03FFF000
007F8000
ENDCHAR

STARTCHAR H
ENCODING 72
SWIDTH 865 0
DWIDTH 29 0
BBX 26 25 1 0
BITMAP
FFF3FFC0
FFF3FFC0
1F807E00
1F807E00
1F807E00
1F807E00
1F807E00
1F807E00
1F807E00
1F807E00
1F807E00
1FFFFE00
1FFFFE00
1F807E00
1F807E00
1F807E00
1F807E00
1F807E00
1F807E00
1F807E00
1F807E00
1F807E00
1F807E00
FFF3FFC0
FFF3FFC0
ENDCHAR

STARTCHAR I
ENCODING 73
SWIDTH 448 0
DWIDTH 15 0
BBX 12 25 1 0
BITMAP
FFF0
FFF0
1F80
1F80
1F80
1F80
1F80
1F80
1F80
1F80
1F80
1F80
1F80
1F80
1F80
1F80
1F80
1F80
1F80
1F80
1F80
1F80
1F80
FFF0
FFF0
ENDCHAR

STARTCHAR J
ENCODING 74
SWIDTH 635 0
DWIDTH 21 0
BBX 19 25 1 0
BITMAP
03FFE0
03FFE0
003F00
003F00
003F00
003F00
003F00
003F00
003F00
003F00
003F00
003F00
003F00
003F00
003F00
783F00
7C3F00
FC3F00
FC3F00
F83F00
F03E00
703E00
787C00
1FF800
07E000
ENDCHAR

STARTCHAR K
ENCODING 75
SWIDTH 854 0
DWIDTH 28 0
BBX 27 25 1 0
BITMAP
FFF3FF80
FFF3FF80
1F807C00
1F807800
1F807000
1F80E000
1F81C000
1F838000
1F860000
1F8F0000
1F9F0000
1FBF8000
1FFFC000
1FEFC000
1FC7E000
1F87E000
1F83F000
1F83F800
1F81F800
1F80FC00
1F80FC00
1F807E00
1F807F00
FFF3FFE0
FFF3FFE0
ENDCHAR

STARTCHAR L
ENCODING 76
SWIDTH 708 0
DWIDTH 23 0
BBX 22 25 1 0
BITMAP
FFF800
FFF800
1F8000
1F8000
1F8000
1F8000
1F8000
1F8000
1F8000
1F8000
1F8000
1F8000
1F8000
1F8000
1F8000
1F800C
1F8008
1F8018
1F8018
1F8018
1F8038
1F8078
1F80F8
FFFFF8
FFFFF8
ENDCHAR

STARTCHAR M
ENCODING 77
SWIDTH 1052 0
DWIDTH 35 0
BBX 33 25 1 0
BITMAP
FFC003FF80
FBE0037F80
1BE006F800
1BF006F800
1BF006F800
19F00CF800
19F80CF800
19F81CF800
18F818F800
18FC18F800
187C38F800
187E30F800
187E30F800
183E60F800
183F60F800
183F60F800
181FC0F800
181FC0F800
180FC0F800
180F80F800
180F80F800
380780F800
3C0700F800
FF870FFF80
FF830FFF80
ENDCHAR

STARTCHAR N
ENCODING 78
SWIDTH 833 0
DWIDTH 27 0
BBX 25 25 2 0
BITMAP
FF01FF80
FF81FF80
1F801E00
1FC01C00
1FE00C00
1FF00C00
1BF00C00
19F80C00
19FC0C00
18FE0C00
187E0C00
183F0C00
183F8C00
181FCC00
180FCC00
1807EC00
1807FC00
1803FC00
1801FC00
1800FC00
1800FC00
38007C00
3C003C00
FFC01C00
FFC01C00
ENDCHAR

STARTCHAR O
ENCODING 79
SWIDTH 823 0
DWIDTH 27 0
BBX 24 25 2 0
BITMAP
00FF00
03FFC0
0F81F0
1F00F8
3F007C
3E007C
7E007E
7E003E
FC003F
FC003F
FC003F
FC003F
FC003F
FC003F
FC003F
FC003F
FC003F
7E007E
7E007E
3E007C
3F00FC
1F00F8
0F83F0
03FFC0
00FE00
ENDCHAR

STARTCHAR P
ENCODING 80
SWIDTH 729 0
DWIDTH 24 0
BBX 22 25 1 0
BITMAP
FFFF80
FFFFE0
1F83F0
1F81F8
1F80FC
1F80FC
1F80FC
1F80FC
1F80FC
1F80FC
1F81F8
1F83F0
1FFFE0
1FFF80
1F8000
1F8000
1F8000
1F8000
1F8000
1F8000
1F8000
1F8000
1F8000
FFF800
FFF800
ENDCHAR

STARTCHAR Q
ENCODING 81
SWIDTH 823 0
DWIDTH 27 0
BBX 27 28 2 -3
BITMAP
00FF0000
03FFC000
0F81F000
1F00F800
3F00FC00
3E007C00
7E007E00
7E007E00
FC003F00
FC003F00
FC003F00
FC003F00
FC003F00
FC003F00
FC7C3F00
FDFE3F00
FD1F3F00
7F0F7E00
7E077E00
3E07BC00
3F03FC00
1F03F800
0FC3D000
03FFE000
007EF000
0000FC00
00003FE0
00000FE0
ENDCHAR

STARTCHAR R
ENCODING 82
SWIDTH 802 0
DWIDTH 26 0
BBX 25 25 1 0
BITMAP
FFFF8000
FFFFE000
1F83F800
1F81F800
1F80FC00
1F80FC00
1F80FC00
1F80FC00
1F80FC00
1F80F800
1F81F800
1F83F000
1FFF4000
1FFF8000
1F87C000
1F87E000
1F83E000
1F83F000
1F81F000
1F81F800
1F80F800
1F80FC00
1F80FC00
FFF07F80
FFF07F80
ENDCHAR

STARTCHAR S
ENCODING 83
SWIDTH 646 0
DWIDTH 21 0
BBX 18 25 2 0
BITMAP
07F800
1FFF00
3C0F80
780780
780380
F80380
F80180
FC0180
FF0000
7FC000
7FF000
3FFC00
0FFF00
03FF80
00FF80
003FC0
C01FC0
C00FC0
C007C0
E007C0
E007C0
F00F80
F81F00
FFFE00
0FF000
ENDCHAR

STARTCHAR T
ENCODING 84
SWIDTH 729 0
DWIDTH 24 0
BBX 22 25 1 0
BITMAP
FFFFFC
FFFFFC
F8FC7C
F0FC3C
E0FC1C
C0FC1C
C0FC0C
C0FC0C
C0FC0C
00FC00
00FC00
00FC00
00FC00
00FC00
00FC00
00FC00
00FC00
00FC00
00FC00
00FC00
00FC00
00FC00
00FC00
07FF80
07FF80
ENDCHAR

STARTCHAR U
ENCODING 85
SWIDTH 802 0
DWIDTH 26 0
BBX 25 25 1 0
BITMAP
FFF8FF80
FFF8FF80
1F801E00
1F800C00
1F800C00
1F800C00
1F800C00
1F800C00
1F800C00
1F800C00
1F800C00
1F800C00
1F800C00
1F800C00
1F800C00
1F800C00
1F800C00
1F800C00
1F800C00
1F801C00
0F801800
0FC03800
07F0F000
03FFE000
00FF8000
ENDCHAR

STARTCHAR V
ENCODING 86
SWIDTH 823 0
DWIDTH 27 0
BBX 26 25 1 0
BITMAP
FFF07FC0
FFF07FC0
3F001E00
1F800E00
1F800C00
0F801C00
0FC01800
07C01800
07E03000
07E03000
03F07000
03F06000
01F06000
01F8C000
01F8C000
00FDC000
00FD8000
007D8000
007F0000
003F0000
003F0000
003E0000
001E0000
001C0000
000C0000
ENDCHAR

STARTCHAR W
ENCODING 87
SWIDTH 1104 0
DWIDTH 36 0
BBX 35 25 1 0
BITMAP
FFCFFF1FE0
FFCFFF1FE0
3F01F80780
3F01F80300
1F00F80300
1F00FC0600
1F80FC0600
0F81FC0600
0F81BE0C00
0FC1BE0C00
07C33E1C00
07C33F1800
07E33F1800
03E61F3800
03E61FB000
03F60FB000
01FC0FE000
01FC0FE000
01F807E000
00F807C000
00F807C000
00F003C000
0070038000
0070038000
0020018000
ENDCHAR

STARTCHAR X
ENCODING 88
SWIDTH 802 0
DWIDTH 26 0
BBX 25 25 1 0
BITMAP
FFF1FF00
FFF1FF00
3F807C00
1F807800
1FC07000
0FE0E000
07E0C000
07F18000
03FB8000
01FF0000
00FE0000
00FE0000
007F0000
003F8000
007F8000
00EFC000
01CFE000
0387E000
0307F000
0603F800
0E01FC00
1E00FC00
3E01FE00
FFC7FF80
FFC7FF80
ENDCHAR

STARTCHAR Y
ENCODING 89
SWIDTH 792 0
DWIDTH 26 0
BBX 25 25 1 0
BITMAP
FFF0FF80
FFF0FF80
3F801E00
1F801C00
0FC01800
0FE03800
07E03000
03F07000
03F86000
01F8C000
00FDC000
00FE8000
007F8000
003F0000
003F0000
003F0000
003F0000
003F0000
003F0000
003F0000
003F0000
003F0000
003F0000
01FFE000
01FFE000
ENDCHAR

STARTCHAR Z
ENCODING 90
SWIDTH 667 0
DWIDTH 22 0
BBX 20 25 1 0
BITMAP
7FFFF0
7FFFF0
7C07E0
780FE0
700FC0
701F80
603F80
603F00
607F00
007E00
00FC00
01FC00
01F800
03F000
07F000
07E000
0FC030
1FC030
1F8070
3F8070
3F00E0
7E00E0
FC03E0
FFFFE0
FFFFE0
ENDCHAR

STARTCHAR bracketleft
ENCODING 91
SWIDTH 396 0
DWIDTH 13 0
BBX 9 30 3 -5
BITMAP
FF80
FF80
F800
F800
F800
F800
F800
F800
F800
F800
F800
F800
F800
F800
F800
F800
F800
F800
F800
F800
F800
F800
F800
F800
F800
F800
F800
F800
FF80
FF80
ENDCHAR

STARTCHAR backslash
ENCODING 92
SWIDTH 552 0
DWIDTH 18 0
BBX 16 28 1 -1
BITMAP
E000
6000
7000
3000
3800
1800
1C00
0C00
0E00
0600
0700
0300
0380
0180
01C0
00C0
00E0
0060
0070
0030
0038
0018
001C
000C
000E
0006
0007
0003
ENDCHAR

STARTCHAR bracketright
ENCODING 93
SWIDTH 396 0
DWIDTH 13 0
BBX 9 30 1 -5
BITMAP
FF80
FF80
0F80
0F80
0F80
0F80
0F80
0F80
0F80
0F80
0F80
0F80
0F80
0F80
0F80
0F80
0F80
0F80
0F80
0F80
0F80
0F80
0F80
0F80
0F80
0F80
0F80
0F80
FF80
FF80
ENDCHAR

STARTCHAR asciicircum
ENCODING 94
SWIDTH 583 0
DWIDTH 19 0
BBX 15 11 2 11
BITMAP
0180
0380
07C0
06E0
0EE0
0C70
1C30
1838
3018
701C
E00E
ENDCHAR

STARTCHAR underscore
ENCODING 95
SWIDTH 500 0
DWIDTH 17 0
BBX 17 2 0 -7
BITMAP
FFFF80
FFFF80
ENDCHAR

STARTCHAR quoteleft
ENCODING 96
SWIDTH 323 0
DWIDTH 11 0
BBX 6 11 2 14
BITMAP
0C
1C
30
60
C0
F8
FC
FC
FC
7C
30
ENDCHAR

STARTCHAR a
ENCODING 97
SWIDTH 615 0
DWIDTH 20 0
BBX 19 18 1 0
BITMAP
07F000
1FFC00
3C3E00
7C1F00
7C1F00
781F00
301F00
001F00
07FF00
3FDF00
7E1F00
FC1F00
F81F00
F81F00
F81F00
FC7F00
7FCFE0
3F07E0
ENDCHAR

STARTCHAR b
ENCODING 98
SWIDTH 646 0
DWIDTH 21 0
BBX 20 25 0 0
BITMAP
FF0000
FF0000
1F0000
1F0000
1F0000
1F0000
1F0000
1F3F00
1F7F80
1FC7C0
1F83E0
1F03E0
1F03F0
1F01F0
1F01F0
1F01F0
1F01F0
1F01F0
1F01F0
1F03F0
1F03E0
1F03E0
1F87C0
1DFF80
187C00
ENDCHAR

STARTCHAR c
ENCODING 99
SWIDTH 542 0
DWIDTH 18 0
BBX 16 18 1 0
BITMAP
03F0
0FFC
3E0E
3C1F
7C1F
FC1F
F80E
F800
F800
F800
F800
FC00
FC00
7C03
7E07
3F0E
1FFC
07F0
ENDCHAR

STARTCHAR d
ENCODING 100
SWIDTH 646 0
DWIDTH 21 0
BBX 20 25 1 0
BITMAP
00FF80
00FF80
000F80
000F80
000F80
000F80
000F80
0FCF80
1FEF80
3F3F80
7C1F80
7C0F80
FC0F80
F80F80
F80F80
F80F80
F80F80
F80F80
F80F80
FC0F80
7C0F80
7C1F80
3E7780
3FEFF0
0FC7F0
ENDCHAR

STARTCHAR e
ENCODING 101
SWIDTH 562 0
DWIDTH 19 0
BBX 16 18 1 0
BITMAP
03E0
0FF8
3E3C
3C1E
781E
781F
F81F
F81F
FFFF
FFFF
F800
F800
F800
7C03
7C06
3E1C
1FF8
07E0
ENDCHAR

STARTCHAR f
ENCODING 102
SWIDTH 406 0
DWIDTH 13 0
BBX 16 26 0 0
BITMAP
00FC
07FF
0F1F
0F0F
1F07
1F00
1F00
1F00
FFF0
FFF0
1F00
1F00
1F00
1F00
1F00
1F00
1F00
1F00
1F00
1F00
1F00
1F00
1F00
1F00
FFF0
FFF0
ENDCHAR

STARTCHAR g
ENCODING 103
SWIDTH 604 0
DWIDTH 20 0
BBX 20 24 1 -6
BITMAP
07F8F0
1F3FE0
3E1EE0
7C0F00
7C0F80
7C0F80
7C0F80
7C0F80
3E1F00
173E00
0FFC00
380000
700000
780000
7FFE00
7FFF80
07FFC0
1FFFC0
7C03C0
F001C0
F003C0
F80780
3FFE00
07F800
ENDCHAR

STARTCHAR h
ENCODING 104
SWIDTH 698 0
DWIDTH 23 0
BBX 22 25 1 0
BITMAP
FF0000
FF0000
1F0000
1F0000
1F0000
1F0000
1F0000
1F0F00
1F3FC0
1F7FC0
1FC7E0
1F83E0
1F03E0
1F03E0
1F03E0
1F03E0
1F03E0
1F03E0
1F03E0
1F03E0
1F03E0
1F03E0
1F03E0
FFCFFC
FFCFFC
ENDCHAR

STARTCHAR i
ENCODING 105
SWIDTH 385 0
DWIDTH 13 0
BBX 11 25 1 0
BITMAP
1E00
1F00
3F00
1E00
0C00
0000
0000
FF00
FF00
3F00
1F00
1F00
1F00
1F00
1F00
1F00
1F00
1F00
1F00
1F00
1F00
1F00
1F00
FFE0
FFE0
ENDCHAR

STARTCHAR j
ENCODING 106
SWIDTH 375 0
DWIDTH 12 0
BBX 11 31 -2 -6
BITMAP
03C0
07E0
07E0
03E0
0180
0000
0000
1FE0
1FE0
07E0
03E0
03E0
03E0
03E0
03E0
03E0
03E0
03E0
03E0
03E0
03E0
03E0
03E0
03E0
03E0
03C0
63C0
F3C0
F380
FF00
3C00
ENDCHAR

STARTCHAR k
ENCODING 107
SWIDTH 698 0
DWIDTH 23 0
BBX 22 25 1 0
BITMAP
FF0000
FF0000
1F0000
1F0000
1F0000
1F0000
1F0000
1F0FF8
1F0FF8
1F03C0
1F0700
1F0E00
1F1C00
1F3C00
1F7E00
1FDE00
1F9F00
1F1F80
1F0F80
1F0FC0
1F07C0
1F07E0
1F03F0
FFCFFC
FFCFFC
ENDCHAR

STARTCHAR l
ENCODING 108
SWIDTH 385 0
DWIDTH 13 0
BBX 11 25 1 0
BITMAP
FF00
FF00
1F00
1F00
1F00
1F00
1F00
1F00
1F00
1F00
1F00
1F00
1F00
1F00
1F00
1F00
1F00
1F00
1F00
1F00
1F00
1F00
1F00
FFE0
FFE0
ENDCHAR

STARTCHAR m
ENCODING 109
SWIDTH 1000 0
DWIDTH 33 0
BBX 32 18 1 0
BITMAP
FE1F03E0
FF3F8FF0
1F7FDFF8
1FCFF1F8
1F87E0F8
1F07C0F8
1F07C0F8
1F07C0F8
1F07C0F8
1F07C0F8
1F07C0F8
1F07C0F8
1F07C0F8
1F07C0F8
1F07C0F8
1F07C0F8
FFDFF3FF
FFDFF3FF
ENDCHAR

STARTCHAR n
ENCODING 110
SWIDTH 698 0
DWIDTH 23 0
BBX 22 18 1 0
BITMAP
FE0F00
FF3FC0
1F7FC0
1FC7E0
1F83E0
1F03E0
1F03E0
1F03E0
1F03E0
1F03E0
1F03E0
1F03E0
1F03E0
1F03E0
1F03E0
1F03E0
FFCFFC
FFCFFC
ENDCHAR

STARTCHAR o
ENCODING 111
SWIDTH 615 0
DWIDTH 20 0
BBX 18 18 1 0
BITMAP
03F000
0FFC00
3E1F00
3C0F80
7C0F80
FC07C0
F807C0
F807C0
F807C0
F807C0
F807C0
F807C0
FC0FC0
7C0F80
3C0F00
3E1F00
0FFC00
03F000
ENDCHAR

STARTCHAR p
ENCODING 112
SWIDTH 646 0
DWIDTH 21 0
BBX 20 24 0 -6
BITMAP
FE3F00
FF7FC0
1F67C0
1F83E0
1F03E0
1F03F0
1F01F0
1F01F0
1F01F0
1F01F0
1F01F0
1F01F0
1F03F0
1F03E0
1F83E0
1FCFC0
1F7F80
1F3F00
1F0000
1F0000
1F0000
1F0000
FFF000
FFF000
ENDCHAR

STARTCHAR q
ENCODING 113
SWIDTH 646 0
DWIDTH 21 0
BBX 20 24 1 -6
BITMAP
07E180
1FFB80
3E1F80
7C0F80
7C0F80
FC0F80
F80F80
F80F80
F80F80
F80F80
F80F80
F80F80
FC0F80
7C0F80
7C1F80
3F7F80
1FEF80
0FCF80
000F80
000F80
000F80
000F80
00FFF0
00FFF0
ENDCHAR

STARTCHAR r
ENCODING 114
SWIDTH 542 0
DWIDTH 18 0
BBX 17 18 0 0
BITMAP
FE0E00
FF1F80
3F7F80
1FE780
1FC780
1F8300
1F0000
1F0000
1F0000
1F0000
1F0000
1F0000
1F0000
1F0000
1F0000
1F0000
FFF000
FFF000
ENDCHAR

STARTCHAR s
ENCODING 115
SWIDTH 510 0
DWIDTH 17 0
BBX 14 18 1 0
BITMAP
0F80
3FF0
7878
7038
F018
F818
FE00
7FC0
7FF0
3FF8
0FFC
01FC
C07C
C03C
E038
F078
7FF0
0FC0
ENDCHAR

STARTCHAR t
ENCODING 116
SWIDTH 427 0
DWIDTH 14 0
BBX 13 24 0 0
BITMAP
0300
0300
0300
0700
0700
0F00
1F00
FFF8
FFF8
1F00
1F00
1F00
1F00
1F00
1F00
1F00
1F00
1F00
1F00
1F00
1F00
1F98
0FF8
07E0
ENDCHAR

STARTCHAR u
ENCODING 117
SWIDTH 698 0
DWIDTH 23 0
BBX 22 18 1 0
BITMAP
FF1FE0
FF1FE0
3F03E0
1F03E0
1F03E0
1F03E0
1F03E0
1F03E0
1F03E0
1F03E0
1F03E0
1F03E0
1F03E0
1F07E0
1F8FE0
0FFBE0
0FF3FC
03C1FC
ENDCHAR

STARTCHAR v
ENCODING 118
SWIDTH 635 0
DWIDTH 21 0
BBX 19 18 1 0
BITMAP
FFCFE0
FFCFE0
3E0180
3E0100
1F0300
1F0300
0F8600
0F8600
0F8400
07CC00
07CC00
03F800
03F800
01F000
01F000
01F000
00E000
00E000
ENDCHAR

STARTCHAR w
ENCODING 119
SWIDTH 906 0
DWIDTH 30 0
BBX 28 18 1 0
BITMAP
FF3FF3F0
FF3FF3F0
3E0F80C0
3E0780C0
1E07C080
1F07C180
1F07E180
0F8DE100
0F8DE300
0799F300
07D9F600
07D8FE00
03F0FC00
03F07C00
01E07C00
01E07800
01E03800
00C03800
ENDCHAR

STARTCHAR x
ENCODING 120
SWIDTH 646 0
DWIDTH 21 0
BBX 20 18 1 0
BITMAP
FFCFE0
FFCFE0
3F0380
1F0300
1F8600
0FCC00
07E800
03F000
01F000
00F800
01FC00
037E00
063E00
0C3F00
181F80
380FC0
FE3FF0
FE3FF0
ENDCHAR

STARTCHAR y
ENCODING 121
SWIDTH 635 0
DWIDTH 21 0
BBX 20 24 1 -6
BITMAP
FFC7F0
FFC7F0
3F01C0
1F0180
1F0180
1F8300
0F8300
0FC600
07C600
07E400
03EC00
03EC00
01F800
01F800
00F000
00F000
00E000
006000
006000
38C000
78C000
798000
7F0000
3E0000
ENDCHAR

STARTCHAR z
ENCODING 122
SWIDTH 521 0
DWIDTH 17 0
BBX 15 18 1 0
BITMAP
7FFE
7FFE
707C
60F8
40F8
41F0
03F0
03E0
07C0
0FC0
0F80
1F06
3F06
3E06
7E06
780E
FFFE
FFFE
ENDCHAR

STARTCHAR braceleft
ENCODING 123
SWIDTH 396 0
DWIDTH 13 0
BBX 8 29 3 -5
BITMAP
07
1C
18
38
38
3C
3C
3C
1C
1C
1C
18
38
A0
C0
30
18
1C
3C
3C
3C
3C
7C
78
78
38
38
0C
03
ENDCHAR

STARTCHAR bar
ENCODING 124
SWIDTH 542 0
DWIDTH 18 0
BBX 3 28 7 -1
BITMAP
E0
E0
E0
E0
E0
E0
E0
E0
E0
E0
E0
E0
E0
E0
E0
E0
E0
E0
E0
E0
E0
E0
E0
E0
E0
E0
E0
E0
ENDCHAR

STARTCHAR braceright
ENCODING 125
SWIDTH 396 0
DWIDTH 13 0
BBX 8 29 2 -5
BITMAP
F0
38
1C
1E
1E
1E
3E
3C
3C
3C
38
18
0C
07
03
0E
1C
38
38
3C
3C
3C
3C
1C
1C
1C
38
70
C0
ENDCHAR

STARTCHAR asciitilde
ENCODING 126
SWIDTH 667 0
DWIDTH 22 0
BBX 18 5 2 8
BITMAP
3E0040
7FC0C0
63F980
C0FF80
801F00
ENDCHAR

STARTCHAR space
ENCODING 160
SWIDTH 250 0
DWIDTH 10 0
BBX 0 0 0 0
BITMAP
ENDCHAR

STARTCHAR afii10023
ENCODING 161
SWIDTH 719 0
DWIDTH 24 0
BBX 22 31 1 0
BITMAP
038380
07C7C0
07C7C0
038380
000000
000000
FFFFF8
FFFFF8
1F80F8
1F8038
1F8038
1F8018
1F8018
1F8308
1F8300
1F8700
1F8F00
1FFF00
1FFF00
1F8F00
1F8700
1F8300
1F830C
1F830C
1F800C
1F801C
1F801C
1F803C
1F80FC
FFFFFC
FFFFFC
ENDCHAR

STARTCHAR afii10051
ENCODING 162
SWIDTH 927 0
DWIDTH 31 0
BBX 29 25 1 0
BITMAP
FFFFFC00
FFFFFC00
F8FC3C00
E0FC1C00
E0FC0C00
C0FC0C00
C0FC0400
00FC0000
00FC0000
00FC3F00
00FCFFC0
00FDFFE0
00FF07F0
00FE03F0
00FC03F8
00FC01F8
00FC01F8
00FC01F8
00FC01F8
00FC01F8
00FC01F8
00FC01F0
00FC0BF0
07FF9FE0
07FF8F80
ENDCHAR

STARTCHAR afii10052
ENCODING 163
SWIDTH 687 0
DWIDTH 23 0
BBX 21 32 1 0
BITMAP
000C00
003E00
007E00
00FC00
01C000
000000
000000
FFFFF0
FFFFF0
1F81F0
1F80F8
1F8078
1F8038
1F8038
1F8038
1F8000
1F8000
1F8000
1F8000
1F8000
1F8000
1F8000
1F8000
1F8000
1F8000
1F8000
1F8000
1F8000
1F8000
1F8000
FFF800
FFF800
ENDCHAR

STARTCHAR afii10053
ENCODING 164
SWIDTH 750 0
DWIDTH 25 0
BBX 22 25 2 0
BITMAP
00FF00
03FFF0
0FC1F0
1F8070
3F0078
7E0038
7E0038
FC0018
FC0018
FC0000
FC0000
FFFE00
FFFE00
FC0000
FC0000
FC0000
FC001C
FE0018
7E0018
7E0038
3F0070
3F80E0
1FE3E0
07FF80
01FE00
ENDCHAR

STARTCHAR afii10054
ENCODING 165
SWIDTH 646 0
DWIDTH 21 0
BBX 18 25 2 0
BITMAP
07F800
1FFF00
3C0F80
780780
780380
F80380
F80180
FC0180
FF0000
7FC000
7FF000
3FFC00
0FFF00
03FF80
00FF80
003FC0
C01FC0
C00FC0
C007C0
E007C0
E007C0
F00F80
F81F00
FFFE00
0FF000
ENDCHAR

STARTCHAR afii10055
ENCODING 166
SWIDTH 448 0
DWIDTH 15 0
BBX 12 25 1 0
BITMAP
FFF0
FFF0
1F80
1F80
1F80
1F80
1F80
1F80
1F80
1F80
1F80
1F80
1F80
1F80
1F80
1F80
1F80
1F80
1F80
1F80
1F80
1F80
1F80
FFF0
FFF0
ENDCHAR

STARTCHAR afii10056
ENCODING 167
SWIDTH 448 0
DWIDTH 15 0
BBX 13 31 1 0
BITMAP
7070
F8F8
F8F8
7070
0000
0000
7FF8
7FF8
0FC0
0FC0
0FC0
0FC0
0FC0
0FC0
0FC0
0FC0
0FC0
0FC0
0FC0
0FC0
0FC0
0FC0
0FC0
0FC0
0FC0
0FC0
0FC0
0FC0
0FC0
7FF8
7FF8
ENDCHAR

STARTCHAR afii10057
ENCODING 168
SWIDTH 635 0
DWIDTH 21 0
BBX 19 25 1 0
BITMAP
03FFE0
03FFE0
003F00
003F00
003F00
003F00
003F00
003F00
003F00
003F00
003F00
003F00
003F00
003F00
003F00
783F00
7C3F00
FC3F00
FC3F00
F83F00
F03E00
703E00
787C00
1FF800
07E000
ENDCHAR

STARTCHAR afii10058
ENCODING 169
SWIDTH 1164 0
DWIDTH 38 0
BBX 37 25 0 0
BITMAP
03FFFFE000
03FFFFE000
00F03F0000
00703F0000
00703F0000
00703F0000
00603F0000
00603F0000
00603F0000
00603F0000
00603F0000
00603FFF00
00603FFFC0
00603F07E0
00E03F03F0
00E03F01F8
00E03F01F8
00C03F01F8
00C03F01F8
78C03F01F8
F8C03F01F8
F9803F03F0
FF803F07E0
7F01FFFFC0
3E01FFFF00
ENDCHAR

STARTCHAR afii10059
ENCODING 170
SWIDTH 1171 0
DWIDTH 39 0
BBX 37 25 1 0
BITMAP
FFF3FFC000
FFF3FFC000
1F807E0000
1F807E0000
1F807E0000
1F807E0000
1F807E0000
1F807E0000
1F807E0000
1F807E0000
1F807E0000
1FFFFFFF00
1FFFFFFFC0
1F807E07E0
1F807E03F0
1F807E01F8
1F807E01F8
1F807E01F8
1F807E01F8
1F807E01F8
1F807E03F8
1F807E03F0
1F807E07E0
FFF3FFFFC0
FFF3FFFF00
ENDCHAR

STARTCHAR afii10060
ENCODING 171
SWIDTH 946 0
DWIDTH 31 0
BBX 30 25 1 0
BITMAP
FFFFFC00
FFFFFC00
F0FC3C00
E0FC1C00
E0FC0C00
C0FC0C00
C0FC0C00
00FC0000
00FC0000
00FC7F00
00FDFF80
00FDFFC0
00FF0FC0
00FC07E0
00FC07E0
00FC07E0
00FC07E0
00FC07E0
00FC07E0
00FC07E0
00FC07E0
00FC07E0
00FC07E0
07FFBFFC
07FFBFFC
ENDCHAR

STARTCHAR afii10061
ENCODING 172
SWIDTH 831 0
DWIDTH 27 0
BBX 26 31 1 0
BITMAP
0003C000
0007C000
000F8000
003E0000
00000000
00000000
FFF00E00
FFF01F00
1F803F80
1F803F80
1F807F00
1F806700
1F806000
1F80C000
1F80C000
1F818000
1F818000
1F870000
1FFE0000
1FFFC000
1F87E000
1F83F000
1F83F000
1F81F800
1F81F800
1F80FC00
1F80FC00
1F807E00
1F807E00
FFF03FC0
FFF03FC0
ENDCHAR

STARTCHAR hyphen
ENCODING 173
SWIDTH 323 0
DWIDTH 11 0
BBX 9 3 1 7
BITMAP
FF80
FF80
FF80
ENDCHAR

STARTCHAR afii10062
ENCODING 174
SWIDTH 748 0
DWIDTH 25 0
BBX 25 32 0 0
BITMAP
00C06000
01E0F000
01E0F000
00E0F000
00FFE000
001F0000
00000000
FFF07F80
FFF07F80
3F800E00
1F800C00
0FC00C00
0FC01800
07E01800
07E03000
03F03000
03F06000
01F86000
01F8E000
00FCC000
00FCC000
007F8000
007F8000
003F0000
003F0000
0C1E0000
1E1E0000
1F0C0000
1F0C0000
1F180000
0FF00000
07C00000
ENDCHAR

STARTCHAR afii10145
ENCODING 175
SWIDTH 865 0
DWIDTH 29 0
BBX 26 31 1 -6
BITMAP
FFF3FFC0
FFF3FFC0
1F807E00
1F807E00
1F807E00
1F807E00
1F807E00
1F807E00
1F807E00
1F807E00
1F807E00
1F807E00
1F807E00
1F807E00
1F807E00
1F807E00
1F807E00
1F807E00
1F807E00
1F807E00
1F807E00
1F807E00
1F807E00
FFFFFFC0
FFFFFFC0
007F8000
001E0000
001E0000
000C0000
000C0000
000C0000
ENDCHAR

STARTCHAR afii10017
ENCODING 176
SWIDTH 854 0
DWIDTH 28 0
BBX 26 25 1 0
BITMAP
000E0000
000E0000
001F0000
001F0000
003F0000
003F8000
007F8000
006FC000
006FC000
00C7C000
00C7E000
0183E000
0183F000
0383F000
0301F800
0601F800
07FFF800
07FFFC00
0C00FC00
0C007E00
1C007E00
1C003E00
3C007F00
FF83FFC0
FF83FFC0
ENDCHAR

STARTCHAR afii10018
ENCODING 177
SWIDTH 792 0
DWIDTH 26 0
BBX 24 25 1 0
BITMAP
FFFFFC
FFFFFC
1F80FC
1F807C
1F803C
1F801C
1F801C
1F801C
1F800C
1F8000
1F8000
1FFFE0
1FFFF8
1F80FC
1F807E
1F803F
1F803F
1F803F
1F803F
1F803F
1F807F
1F807E
1F80FC
FFFFF8
FFFFC0
ENDCHAR

STARTCHAR afii10019
ENCODING 178
SWIDTH 792 0
DWIDTH 26 0
BBX 24 25 1 0
BITMAP
FFFFC0
FFFFF0
1F81FC
1F80FC
1F807E
1F807E
1F807E
1F807E
1F807C
1F80F8
1F81F0
1FFF00
1FFFF0
1F80FC
1F807E
1F807F
1F803F
1F803F
1F803F
1F803F
1F807F
1F807E
1F81FC
FFFFF8
FFFFE0
ENDCHAR

STARTCHAR afii10020
ENCODING 179
SWIDTH 687 0
DWIDTH 23 0
BBX 21 25 1 0
BITMAP
FFFFF0
FFFFF0
1F81F0
1F80F8
1F8078
1F8038
1F8038
1F8038
1F8000
1F8000
1F8000
1F8000
1F8000
1F8000
1F8000
1F8000
1F8000
1F8000
1F8000
1F8000
1F8000
1F8000
1F8000
FFF800
FFF800
ENDCHAR

STARTCHAR afii10021
ENCODING 180
SWIDTH 813 0
DWIDTH 27 0
BBX 26 30 0 -5
BITMAP
0FFFFF80
0FFFFF80
01E0FC00
01C0FC00
00C0FC00
00C0FC00
00C0FC00
00C0FC00
00C0FC00
00C0FC00
01C0FC00
0180FC00
0180FC00
0180FC00
0180FC00
0380FC00
0300FC00
0300FC00
0300FC00
0600FC00
0E00FC00
0C00FC00
1000FC00
FFFFFFC0
FFFFFFC0
F00007C0
E00003C0
C00001C0
C00001C0
800000C0
ENDCHAR

STARTCHAR afii10022
ENCODING 181
SWIDTH 719 0
DWIDTH 24 0
BBX 22 25 1 0
BITMAP
FFFFF8
FFFFF8
1F80F8
1F8038
1F8038
1F8018
1F8018
1F8308
1F8300
1F8700
1F8F00
1FFF00
1FFF00
1F8F00
1F8700
1F8300
1F830C
1F830C
1F800C
1F801C
1F801C
1F803C
1F80FC
FFFFFC
FFFFFC
ENDCHAR

STARTCHAR afii10024
ENCODING 182
SWIDTH 1189 0
DWIDTH 39 0
BBX 38 25 1 0
BITMAP
1C07FF80E0
3F07FF83F0
7F00FC03F8
7F80FC07F8
3F80FC07F0
1DC0FC0EE0
00C0FC0C00
00C0FC0C00
00E0FC1C00
0060FC1800
0070FC3800
0038FC7000
001FFFE000
00FFFFFC00
01F8FC7E00
03F0FC3F00
07E0FC1F80
07E0FC1F80
0FC0FC0FC0
0FC0FC0FC0
0F80FC07C0
1F80FC07E0
3F80FC07F0
FF07FF83FC
FF07FF83FC
ENDCHAR

STARTCHAR afii10025
ENCODING 183
SWIDTH 689 0
DWIDTH 23 0
BBX 20 25 2 0
BITMAP
07FC00
3FFF00
7C1F80
780FC0
7007E0
6007E0
6007E0
E007E0
0007C0
000FC0
001F00
03F000
03FE00
001FC0
0007E0
0003E0
0003F0
0003F0
C003F0
C003F0
E003E0
7007E0
3C1FC0
1FFF80
07FC00
ENDCHAR

STARTCHAR afii10026
ENCODING 184
SWIDTH 880 0
DWIDTH 29 0
BBX 27 25 1 0
BITMAP
FFF1FFE0
FFF1FFE0
1F803F00
1F803F00
1F807F00
1F807F00
1F80FF00
1F80DF00
1F81BF00
1F83BF00
1F833F00
1F863F00
1F8E3F00
1F8C3F00
1F983F00
1FB83F00
1FB03F00
1FA03F00
1FE03F00
1FC03F00
1FC03F00
1F803F00
1F803F00
FFF1FFE0
FFF1FFE0
ENDCHAR

STARTCHAR afii10027
ENCODING 185
SWIDTH 880 0
DWIDTH 29 0
BBX 27 32 1 0
BITMAP
00606000
00F0F000
00E0F000
00F07000
007FE000
000F0000
00000000
FFF1FFE0
FFF1FFE0
1F803F00
1F803F00
1F807F00
1F807F00
1F80FF00
1F80DF00
1F81BF00
1F83BF00
1F833F00
1F863F00
1F8E3F00
1F8C3F00
1F983F00
1FB83F00
1FB03F00
1FA03F00
1FE03F00
1FC03F00
1FC03F00
1F803F00
1F803F00
FFF1FFE0
FFF1FFE0
ENDCHAR

STARTCHAR afii10028
ENCODING 186
SWIDTH 831 0
DWIDTH 27 0
BBX 26 25 1 0
BITMAP
FFF00E00
FFF01F00
1F803F80
1F803F80
1F807F00
1F806700
1F806000
1F80C000
1F80C000
1F818000
1F818000
1F870000
1FFE0000
1FFFC000
1F87E000
1F83F000
1F83F000
1F81F800
1F81F800
1F80FC00
1F80FC00
1F807E00
1F807E00
FFF03FC0
FFF03FC0
ENDCHAR

STARTCHAR afii10029
ENCODING 187
SWIDTH 844 0
DWIDTH 28 0
BBX 26 25 1 0
BITMAP
07FFFFC0
07FFFFC0
00F07E00
00E07E00
00E07E00
00E07E00
00E07E00
00C07E00
00C07E00
00C07E00
00C07E00
00C07E00
00C07E00
00C07E00
00C07E00
00C07E00
00807E00
00807E00
01807E00
F1807E00
F9807E00
FB007E00
FF007E00
FE03FFC0
7C03FFC0
ENDCHAR

STARTCHAR afii10030
ENCODING 188
SWIDTH 1052 0
DWIDTH 35 0
BBX 33 25 1 0
BITMAP
FFC003FF80
FBE0037F80
1BE006F800
1BF006F800
1BF006F800
19F00CF800
19F80CF800
19F81CF800
18F818F800
18FC18F800
187C30F800
187E30F800
187E30F800
183E60F800
183F60F800
183F60F800
181FC0F800
181FC0F800
180FC0F800
180F80F800
180F80F800
180780F800
3C0700F800
FF870FFF80
FF820FFF80
ENDCHAR

STARTCHAR afii10031
ENCODING 189
SWIDTH 865 0
DWIDTH 29 0
BBX 27 25 1 0
BITMAP
FFF1FFE0
FFF1FFE0
1F803F00
1F803F00
1F803F00
1F803F00
1F803F00
1F803F00
1F803F00
1F803F00
1F803F00
1FFFFF00
1FFFFF00
1F803F00
1F803F00
1F803F00
1F803F00
1F803F00
1F803F00
1F803F00
1F803F00
1F803F00
1F803F00
FFF1FFE0
FFF1FFE0
ENDCHAR

STARTCHAR afii10032
ENCODING 190
SWIDTH 823 0
DWIDTH 27 0
BBX 24 25 2 0
BITMAP
00FF00
03FFC0
0F81F0
1F00F8
3F007C
3E007C
7E007E
7E003E
FC003F
FC003F
FC003F
FC003F
FC003F
FC003F
FC003F
FC003F
FC003F
7E007E
7E007E
3E007C
3F00FC
1F00F8
0F83F0
03FFC0
00FE00
ENDCHAR

STARTCHAR afii10033
ENCODING 191
SWIDTH 865 0
DWIDTH 29 0
BBX 26 25 1 0
BITMAP
FFFFFFC0
FFFFFFC0
1F807E00
1F807E00
1F807E00
1F807E00
1F807E00
1F807E00
1F807E00
1F807E00
1F807E00
1F807E00
1F807E00
1F807E00
1F807E00
1F807E00
1F807E00
1F807E00
1F807E00
1F807E00
1F807E00
1F807E00
1F807E00
FFF3FFC0
FFF3FFC0
ENDCHAR

STARTCHAR afii10034
ENCODING 192
SWIDTH 729 0
DWIDTH 24 0
BBX 22 25 1 0
BITMAP
FFFF80
FFFFE0
1F83F0
1F81F8
1F80FC
1F80FC
1F80FC
1F80FC
1F80FC
1F80FC
1F81F8
1F83F0
1FFFE0
1FFF80
1F8000
1F8000
1F8000
1F8000
1F8000
1F8000
1F8000
1F8000
1F8000
FFF800
FFF800
ENDCHAR

STARTCHAR afii10035
ENCODING 193
SWIDTH 750 0
DWIDTH 25 0
BBX 22 25 2 0
BITMAP
007F80
03FFF0
0FC0F8
1F8078
3F0038
3F0038
7E0018
7E0018
FE0018
FC0000
FC0000
FC0000
FC0000
FC0000
FC0000
FC0000
FE000C
7E001C
7E0018
7E0038
3F0030
1F8070
0FE1E0
07FFC0
01FF00
ENDCHAR

STARTCHAR afii10036
ENCODING 194
SWIDTH 729 0
DWIDTH 24 0
BBX 23 25 1 0
BITMAP
FFFFFC
FFFFFC
F0FC3C
E0FC1C
E0FC0C
C0FC0C
C0FC0C
C0FC04
80FC06
00FC00
00FC00
00FC00
00FC00
00FC00
00FC00
00FC00
00FC00
00FC00
00FC00
00FC00
00FC00
00FC00
00FC00
07FFC0
07FFC0
ENDCHAR

STARTCHAR afii10037
ENCODING 195
SWIDTH 748 0
DWIDTH 25 0
BBX 25 25 0 0
BITMAP
FFF07F80
FFF07F80
3F801E00
1F801C00
0FC01800
0FC01800
0FC03000
07E03000
07E06000
03F06000
03F0E000
01F8C000
01F8C000
00FD8000
00FD8000
007F0000
007F0000
003E0000
0C3E0000
1E1E0000
3E0C0000
3F1C0000
1F380000
1FF00000
07C00000
ENDCHAR

STARTCHAR afii10038
ENCODING 196
SWIDTH 934 0
DWIDTH 31 0
BBX 28 25 1 0
BITMAP
00FFF000
00FFF000
001F8000
001F8000
07FFFE00
1F9F9F80
3E1F87C0
7E1F87E0
7C1F83E0
7C1F83E0
FC1F83F0
FC1F83F0
FC1F83F0
FC1F83F0
FC1F83F0
7C1F83F0
7E1F83E0
7E1F87E0
3F1F8FC0
1FDFBF80
07FFFE00
001F8000
001F8000
00FFF000
00FFF000
ENDCHAR

STARTCHAR afii10039
ENCODING 197
SWIDTH 802 0
DWIDTH 26 0
BBX 25 25 1 0
BITMAP
FFF1FF00
FFF1FF00
3F807C00
3F807800
1FC07000
0FC0E000
07E1C000
07F18000
03FB0000
01FF0000
01FE0000
00FE0000
003F0000
007F0000
007F8000
00DFC000
01CFC000
0387E000
0707F000
0603F800
0E01F800
1C01FC00
3E01FE00
FF87FF80
FF87FF80
ENDCHAR

STARTCHAR afii10040
ENCODING 198
SWIDTH 882 0
DWIDTH 29 0
BBX 27 31 1 -6
BITMAP
FFF3FFC0
FFF3FFC0
1F807E00
1F807E00
1F807E00
1F807E00
1F807E00
1F807E00
1F807E00
1F807E00
1F807E00
1F807E00
1F807E00
1F807E00
1F807E00
1F807E00
1F807E00
1F807E00
1F807E00
1F807E00
1F807E00
1F807E00
1F807E00
FFFFFFE0
FFFFFFE0
000003E0
000001E0
000000E0
000000E0
00000060
00000060
ENDCHAR

STARTCHAR afii10041
ENCODING 199
SWIDTH 817 0
DWIDTH 27 0
BBX 26 25 0 0
BITMAP
FFF3FFC0
FFF3FFC0
1F807E00
1F807E00
1F807E00
1F807E00
1F807E00
1F807E00
1F807E00
1F807E00
1F807E00
0F80FE00
0FC1FE00
07FFBE00
03FE7E00
00F87E00
00007E00
00007E00
00007E00
00007E00
00007E00
00007E00
00007E00
0003FFC0
0003FFC0
ENDCHAR

STARTCHAR afii10042
ENCODING 200
SWIDTH 1133 0
DWIDTH 37 0
BBX 35 25 1 0
BITMAP
FFCFFC7FE0
FFCFFC7FE0
3F03F01F80
3F03F01F80
3F03F01F80
3F03F01F80
3F03F01F80
3F03F01F80
3F03F01F80
3F03F01F80
3F03F01F80
3F03F01F80
3F03F01F80
3F03F01F80
3F03F01F80
3F03F01F80
3F03F01F80
3F03F01F80
3F03F01F80
3F03F01F80
3F03F01F80
3F03F01F80
3F03F01F80
FFFFFFFFE0
FFFFFFFFE0
ENDCHAR

STARTCHAR afii10043
ENCODING 201
SWIDTH 1153 0
DWIDTH 38 0
BBX 36 31 1 -6
BITMAP
FFCFFC7FE0
FFCFFC7FE0
3F03F01F80
3F03F01F80
3F03F01F80
3F03F01F80
3F03F01F80
3F03F01F80
3F03F01F80
3F03F01F80
3F03F01F80
3F03F01F80
3F03F01F80
3F03F01F80
3F03F01F80
3F03F01F80
3F03F01F80
3F03F01F80
3F03F01F80
3F03F01F80
3F03F01F80
3F03F01F80
3F03F01F80
FFFFFFFFF0
FFFFFFFFF0
00000001F0
00000000F0
0000000070
0000000030
0000000030
0000000030
ENDCHAR

STARTCHAR afii10044
ENCODING 202
SWIDTH 937 0
DWIDTH 31 0
BBX 29 25 1 0
BITMAP
FFFFC000
FFFFC000
F8FC0000
F0FC0000
E0FC0000
C0FC0000
C0FC0000
C0FC0000
00FC0000
00FC0000
00FC0000
00FFFF00
00FFFFC0
00FC07F0
00FC03F0
00FC01F8
00FC01F8
00FC01F8
00FC01F8
00FC01F8
00FC03F8
00FC03F0
00FC07E0
07FFFFC0
07FFFE00
ENDCHAR

STARTCHAR afii10045
ENCODING 203
SWIDTH 1177 0
DWIDTH 39 0
BBX 37 25 1 0
BITMAP
FFF8007FF8
FFF8007FF8
1F80000FC0
1F80000FC0
1F80000FC0
1F80000FC0
1F80000FC0
1F80000FC0
1F80000FC0
1F80000FC0
1F80000FC0
1FFFE00FC0
1FFFF80FC0
1F80FE0FC0
1F807E0FC0
1F803F0FC0
1F803F0FC0
1F803F0FC0
1F803F0FC0
1F803F0FC0
1F803F0FC0
1F807E0FC0
1F80FC0FC0
FFFFF87FF8
FFFFC07FF8
ENDCHAR

STARTCHAR afii10046
ENCODING 204
SWIDTH 781 0
DWIDTH 26 0
BBX 24 25 1 0
BITMAP
FFF800
FFF800
1F8000
1F8000
1F8000
1F8000
1F8000
1F8000
1F8000
1F8000
1F8000
1FFFE0
1FFFF8
1F80FE
1F807E
1F803F
1F803F
1F803F
1F803F
1F803F
1F803F
1F807E
1F80FC
FFFFF8
FFFFC0
ENDCHAR

STARTCHAR afii10047
ENCODING 205
SWIDTH 750 0
DWIDTH 25 0
BBX 22 25 1 0
BITMAP
07F800
3FFF00
7E0FC0
7803E0
7003F0
7001F0
7001F8
6000F8
6000FC
0000FC
0000FC
01FFFC
01FFFC
0000FC
0000FC
0000FC
C001FC
E001F8
6001F8
6001F8
3003F0
3807E0
1E1FC0
0FFF80
03FE00
ENDCHAR

STARTCHAR afii10048
ENCODING 206
SWIDTH 1219 0
DWIDTH 40 0
BBX 37 25 1 0
BITMAP
FFF003F800
FFF01FFE00
1F803E0F80
1F807807C0
1F80F803E0
1F81F003F0
1F81F003F0
1F83F001F0
1F83F001F8
1F83F001F8
1F83F001F8
1FFFF001F8
1FFFF001F8
1F83F001F8
1F83F001F8
1F83F001F8
1F83F001F8
1F83F001F0
1F81F003F0
1F81F803E0
1F80F803E0
1F807C07C0
1F803E0F80
FFF01FFE00
FFF003F800
ENDCHAR

STARTCHAR afii10049
ENCODING 207
SWIDTH 802 0
DWIDTH 26 0
BBX 25 25 0 0
BITMAP
00FFFF80
07FFFF80
0FE0FC00
0FC0FC00
1F80FC00
1F80FC00
1F80FC00
1F80FC00
0F80FC00
0FC0FC00
07E0FC00
017FFC00
00FFFC00
01F0FC00
03F0FC00
07E0FC00
07E0FC00
0FC0FC00
0FC0FC00
0F80FC00
1F80FC00
1F80FC00
3F00FC00
FF07FF80
FE07FF80
ENDCHAR

STARTCHAR afii10065
ENCODING 208
SWIDTH 615 0
DWIDTH 20 0
BBX 19 18 1 0
BITMAP
07F000
1FFC00
3C3E00
7C1F00
7C1F00
781F00
301F00
001F00
07FF00
3FDF00
7E1F00
FC1F00
F81F00
F81F00
F81F00
FC7F00
7FCFE0
3F07E0
ENDCHAR

STARTCHAR afii10066
ENCODING 209
SWIDTH 615 0
DWIDTH 20 0
BBX 18 25 1 0
BITMAP
0000C0
03FFC0
0FFF80
1FFF00
3FFC00
380000
600000
61F000
C7FC00
DE1F00
DC0F80
DC0F80
DC07C0
F807C0
F807C0
F807C0
F807C0
F807C0
F807C0
7C0FC0
7C0F80
3C0F00
1E1F00
0FFC00
03F000
ENDCHAR

STARTCHAR afii10067
ENCODING 210
SWIDTH 646 0
DWIDTH 21 0
BBX 20 18 0 0
BITMAP
FFFE00
FFFFC0
1F07C0
1F03E0
1F03E0
1F03E0
1F03C0
1F07C0
1FFC00
1FFF80
1F07E0
1F03F0
1F03F0
1F03F0
1F03F0
1F07E0
FFFFC0
FFFF00
ENDCHAR

STARTCHAR afii10068
ENCODING 211
SWIDTH 577 0
DWIDTH 19 0
BBX 18 18 1 0
BITMAP
FFFF80
FFFF80
1F0380
1F0380
1F01C0
1F01C0
1F00C0
1F0000
1F0000
1F0000
1F0000
1F0000
1F0000
1F0000
1F0000
1F0000
FFE000
FFE000
ENDCHAR

STARTCHAR afii10069
ENCODING 212
SWIDTH 662 0
DWIDTH 22 0
BBX 21 23 0 -5
BITMAP
1FFFF8
1FFFF8
0787C0
0307C0
0307C0
0307C0
0307C0
0307C0
0307C0
0307C0
0207C0
0607C0
0607C0
0C07C0
0C07C0
3007C0
FFFFF8
FFFFF8
F00078
E00038
C00018
C00018
C00018
ENDCHAR

STARTCHAR afii10070
ENCODING 213
SWIDTH 562 0
DWIDTH 19 0
BBX 16 18 1 0
BITMAP
03E0
0FF8
3E3C
3C1E
7C1E
781F
F81F
F81F
FFFF
FFFF
F800
F800
F800
7C03
7C06
3E1C
1FF8
07E0
ENDCHAR

STARTCHAR afii10072
ENCODING 214
SWIDTH 936 0
DWIDTH 31 0
BBX 31 18 0 0
BITMAP
3C3FF878
7E3FF8FC
7F07C1FC
7B07C1BC
3187C118
0187C300
0187C300
00C7C600
007FFC00
03FFFF80
03C7C780
07C7C7C0
0F87C3E0
0F87C3E0
1F07C1F0
1F07C1F0
FE3FF8FE
FE3FF8FE
ENDCHAR

STARTCHAR afii10073
ENCODING 215
SWIDTH 531 0
DWIDTH 18 0
BBX 15 18 1 0
BITMAP
0FE0
7FF8
787C
703E
603E
603E
007C
00F8
0780
07F8
007C
603E
F03E
F03E
F03E
707C
3FF8
0FC0
ENDCHAR

STARTCHAR afii10074
ENCODING 216
SWIDTH 708 0
DWIDTH 23 0
BBX 22 18 1 0
BITMAP
FFCFFC
FFCFFC
1F03E0
1F03E0
1F07E0
1F07E0
1F0DE0
1F1BE0
1F33E0
1F33E0
1F63E0
1FC3E0
1FC3E0
1F83E0
1F03E0
1F03E0
FFCFFC
FFCFFC
ENDCHAR

STARTCHAR afii10075
ENCODING 217
SWIDTH 708 0
DWIDTH 23 0
BBX 22 25 1 0
BITMAP
018300
038380
038380
01C780
00FE00
000000
000000
FFCFFC
FFCFFC
1F03E0
1F03E0
1F07E0
1F07E0
1F0DE0
1F1BE0
1F33E0
1F33E0
1F63E0
1FC3E0
1FC3E0
1F83E0
1F03E0
1F03E0
FFCFFC
FFCFFC
ENDCHAR

STARTCHAR afii10076
ENCODING 218
SWIDTH 677 0
DWIDTH 22 0
BBX 21 18 1 0
BITMAP
FFE0E0
FFE1F8
1F03F8
1F0378
1F0630
1F0600
1F0400
1F0C00
1FF800
1FFF00
1F1F00
1F0F80
1F0F80
1F07C0
1F07E0
1F03E0
FFE1F8
FFE1F8
ENDCHAR

STARTCHAR afii10077
ENCODING 219
SWIDTH 698 0
DWIDTH 23 0
BBX 22 18 1 0
BITMAP
0FFFFC
0FFFFC
0383E0
0383E0
0383E0
0383E0
0303E0
0303E0
0303E0
0303E0
0303E0
0303E0
0303E0
E303E0
F203E0
FE03E0
FE1FFC
781FFC
ENDCHAR

STARTCHAR afii10078
ENCODING 220
SWIDTH 854 0
DWIDTH 28 0
BBX 26 18 1 0
BITMAP
FF007FC0
F780DFC0
3780DE00
37C0BE00
37C1BE00
37C13E00
33E33E00
33E33E00
31E23E00
31F63E00
31F63E00
30FC3E00
30FC3E00
30783E00
30783E00
30783E00
FC30FFC0
FC30FFC0
ENDCHAR

STARTCHAR afii10079
ENCODING 221
SWIDTH 713 0
DWIDTH 24 0
BBX 22 18 1 0
BITMAP
FFCFFC
FFCFFC
1F03E0
1F03E0
1F03E0
1F03E0
1F03E0
1F03E0
1FFFE0
1F03E0
1F03E0
1F03E0
1F03E0
1F03E0
1F03E0
1F03E0
FFCFFC
FFCFFC
ENDCHAR

STARTCHAR afii10080
ENCODING 222
SWIDTH 614 0
DWIDTH 20 0
BBX 18 18 1 0
BITMAP
03F000
0FFC00
3E1F00
3C0F80
7C0F80
FC07C0
F807C0
F807C0
F807C0
F807C0
F807C0
F807C0
FC0FC0
7C0F80
3C0F00
3E1F00
0FFC00
03F000
ENDCHAR

STARTCHAR afii10081
ENCODING 223
SWIDTH 708 0
DWIDTH 23 0
BBX 22 18 1 0
BITMAP
FFFFFC
FFFFFC
1F03E0
1F03E0
1F03E0
1F03E0
1F03E0
1F03E0
1F03E0
1F03E0
1F03E0
1F03E0
1F03E0
1F03E0
1F03E0
1F03E0
FFCFFC
FFCFFC
ENDCHAR

STARTCHAR afii10082
ENCODING 224
SWIDTH 656 0
DWIDTH 22 0
BBX 20 24 1 -6
BITMAP
FE3F00
FF7FC0
1F67C0
1F83E0
1F03E0
1F03F0
1F01F0
1F01F0
1F01F0
1F01F0
1F01F0
1F01F0
1F03F0
1F03E0
1F83E0
1FCFC0
1F7F80
1F3F00
1F0000
1F0000
1F0000
1F0000
FFF000
FFF000
ENDCHAR

STARTCHAR afii10083
ENCODING 225
SWIDTH 542 0
DWIDTH 18 0
BBX 16 18 1 0
BITMAP
03F0
0FFC
3E0E
7C1F
7C1F
FC1F
F80E
F800
F800
F800
F800
FC00
FC00
7C03
7E07
3F0E
1FFC
07F0
ENDCHAR

STARTCHAR afii10084
ENCODING 226
SWIDTH 598 0
DWIDTH 20 0
BBX 19 18 0 0
BITMAP
7FFFC0
FFFFC0
F1F1E0
E1F0E0
C1F060
C1F060
01F000
01F000
01F000
01F000
01F000
01F000
01F000
01F000
01F000
01F000
0FFE00
0FFE00
ENDCHAR

STARTCHAR afii10085
ENCODING 227
SWIDTH 594 0
DWIDTH 20 0
BBX 20 24 0 -6
BITMAP
FFC7F0
FFC7F0
3F01C0
1F0180
1F0180
1F8300
0F8300
0FC600
07C600
07C400
03EC00
03EC00
01F800
01F800
00F000
00F000
00E000
006000
006000
38C000
78C000
798000
7F0000
3E0000
ENDCHAR

STARTCHAR afii10086
ENCODING 228
SWIDTH 823 0
DWIDTH 27 0
BBX 25 31 1 -6
BITMAP
00FE0000
007E0000
003E0000
001E0000
001E0000
001E0000
001E0000
0F1E7C00
1FDEFE00
3FDF9F00
7C7F1F00
7C3E0F00
781E0F80
F81E0F80
F81E0F80
F81E0F80
F81E0F80
F81E0F80
F81E0F80
F81E0F80
783E0F00
7C3F1F00
3E7F9E00
3FDEFE00
1F9E7C00
001E0000
001E0000
001E0000
003E0000
00FF8000
00FF8000
ENDCHAR

STARTCHAR afii10087
ENCODING 229
SWIDTH 646 0
DWIDTH 21 0
BBX 20 18 1 0
BITMAP
FFCFE0
FFCFE0
3F0380
1F0300
1F8600
0FCC00
07E800
03F000
01F000
00F800
01FC00
037E00
063F00
0C1F00
181F80
380FC0
FE3FF0
FE3FF0
ENDCHAR

STARTCHAR afii10088
ENCODING 230
SWIDTH 711 0
DWIDTH 23 0
BBX 22 22 1 -4
BITMAP
FFCFFC
FFCFFC
1F03E0
1F03E0
1F03E0
1F03E0
1F03E0
1F03E0
1F03E0
1F03E0
1F03E0
1F03E0
1F03E0
1F03E0
1F03E0
1F03F0
FFFFFC
FFFFFC
00001C
00000C
00000C
00000C
ENDCHAR

STARTCHAR afii10089
ENCODING 231
SWIDTH 698 0
DWIDTH 23 0
BBX 22 18 0 0
BITMAP
FFCFFC
FFCFFC
1F03E0
1F03E0
1F03E0
1F03E0
1F03E0
1F03E0
1F8FE0
0FFDE0
0FFBE0
03C3E0
0003E0
0003E0
0003E0
0003E0
000FFC
000FFC
ENDCHAR

STARTCHAR afii10090
ENCODING 232
SWIDTH 1047 0
DWIDTH 35 0
BBX 33 18 1 0
BITMAP
FFCFF9FF80
FFCFF9FF80
1F03E07C00
1F03E07C00
1F03E07C00
1F03E07C00
1F03E07C00
1F03E07C00
1F03E07C00
1F03E07C00
1F03E07C00
1F03E07C00
1F03E07C00
1F03E07C00
1F03E07C00
1F03E07C00
FFFFFFFF80
FFFFFFFF80
ENDCHAR

STARTCHAR afii10091
ENCODING 233
SWIDTH 1055 0
DWIDTH 35 0
BBX 33 22 1 -4
BITMAP
FFCFF9FF80
FFCFF9FF80
1F03E07C00
1F03E07C00
1F03E07C00
1F03E07C00
1F03E07C00
1F03E07C00
1F03E07C00
1F03E07C00
1F03E07C00
1F03E07C00
1F03E07C00
1F03E07C00
1F03E07C00
1F03E07C00
FFFFFFFF80
FFFFFFFF80
0000000380
0000000180
0000000180
0000000080
ENDCHAR

STARTCHAR afii10092
ENCODING 234
SWIDTH 740 0
DWIDTH 24 0
BBX 23 18 0 0
BITMAP
7FFE00
7FFE00
71F000
61F000
41F000
C1F000
01F000
01FFE0
01FFF8
01F07C
01F03E
01F03E
01F03E
01F03E
01F03E
01F07C
0FFFF8
0FFFE0
ENDCHAR

STARTCHAR afii10093
ENCODING 235
SWIDTH 948 0
DWIDTH 31 0
BBX 30 18 1 0
BITMAP
FFC01FFC
FFC01FFC
1F0003E0
1F0003E0
1F0003E0
1F0003E0
1F0003E0
1FFE03E0
1FFF83E0
1F07C3E0
1F03E3E0
1F03E3E0
1F03E3E0
1F03E3E0
1F07E3E0
1F0FC3E0
FFFF9FFC
FFFE1FFC
ENDCHAR

STARTCHAR afii10094
ENCODING 236
SWIDTH 635 0
DWIDTH 21 0
BBX 19 18 1 0
BITMAP
FFC000
FFC000
1F0000
1F0000
1F0000
1F0000
1F0000
1FFE00
1FFF80
1F07C0
1F03E0
1F03E0
1F03E0
1F03E0
1F07E0
1F0FC0
FFFF80
FFFE00
ENDCHAR

STARTCHAR afii10095
ENCODING 237
SWIDTH 567 0
DWIDTH 19 0
BBX 16 18 1 0
BITMAP
0FC0
7FF8
787C
703E
601E
601F
601F
001F
07FF
07FF
001F
601F
F01F
F01E
F03E
707C
3FF8
0FE0
ENDCHAR

STARTCHAR afii10096
ENCODING 238
SWIDTH 935 0
DWIDTH 31 0
BBX 29 18 1 0
BITMAP
FFE07E00
FFE1FFC0
1F03C3E0
1F0781F0
1F0F81F0
1F0F80F8
1F1F80F8
1F1F00F8
1FFF00F8
1FFF00F8
1F1F00F8
1F0F80F8
1F0F80F8
1F0F81F0
1F0781F0
1F03C3E0
FFE1FF80
FFE07E00
ENDCHAR

STARTCHAR afii10097
ENCODING 239
SWIDTH 669 0
DWIDTH 22 0
BBX 21 18 1 0
BITMAP
03FFF8
0FFFF8
1F07C0
3F07C0
3E07C0
3E07C0
3F07C0
1F07C0
0FFFC0
01FFC0
07C7C0
0F87C0
0F87C0
1F07C0
1F07C0
3E07C0
FE3FF8
FE3FF8
ENDCHAR

STARTCHAR afii61352
ENCODING 240
SWIDTH 1115 0
DWIDTH 37 0
BBX 36 26 0 0
BITMAP
000001E000
1FE007F000
1FE007F000
07F00FF000
03F80EF000
03F80C2000
03FC0C0000
03FE0C0000
037E0C1F80
037F0C39C0
033F8C70E0
033F8CF0F0
031FCCF0F0
030FCCF0F0
030FECF0F0
0307FCF0F0
0307FCF0F0
0303FC70E0
0301FC39C0
0301FC1F80
0300FC0000
7300FC0000
FF007C0000
FF003C3FC0
7E003C3FC0
3C001C3FC0
ENDCHAR

STARTCHAR afii10071
ENCODING 241
SWIDTH 562 0
DWIDTH 19 0
BBX 17 25 1 0
BITMAP
1E1E00
1E1E00
1E1E00
1E1E00
000000
000000
000000
03E000
0FF800
3E3E00
3C1E00
7C1F00
780F00
F80F80
F80F80
FFFF80
FFFF80
F80000
F80000
FC0000
7C0300
7C0700
3F0E00
1FFC00
07F000
ENDCHAR

STARTCHAR afii10099
ENCODING 242
SWIDTH 646 0
DWIDTH 21 0
BBX 19 30 1 -5
BITMAP
3F0000
FF0000
3F0000
1F0000
FFFF00
FFFF00
1F0000
1F1E00
1F3F80
1F7FC0
1FC7C0
1F87E0
1F03E0
1F03E0
1F03E0
1F03E0
1F03E0
1F03E0
1F03E0
1F03E0
1F03E0
1F03E0
1F03C0
FFC3C0
FFC7C0
000780
000780
000F00
003E00
007800
ENDCHAR

STARTCHAR afii10100
ENCODING 243
SWIDTH 581 0
DWIDTH 19 0
BBX 18 25 1 0
BITMAP
003C00
007C00
007C00
00F000
018000
000000
000000
FFFF80
FFFF80
1F0380
1F0380
1F01C0
1F01C0
1F00C0
1F0000
1F0000
1F0000
1F0000
1F0000
1F0000
1F0000
1F0000
1F0000
FFE000
FFE000
ENDCHAR

STARTCHAR afii10101
ENCODING 244
SWIDTH 552 0
DWIDTH 18 0
BBX 15 18 2 0
BITMAP
03E0
1FF8
3E1C
7C1E
783E
F83E
F81C
F800
FFE0
FFE0
F800
F800
F800
7C06
7C0E
3E1C
1FF8
07E0
ENDCHAR

STARTCHAR afii10102
ENCODING 245
SWIDTH 500 0
DWIDTH 17 0
BBX 14 18 1 0
BITMAP
0FC0
3FF0
7878
7038
F018
F818
FE00
7FC0
7FF0
3FF8
0FFC
01FC
C07C
C03C
E038
F078
7FF0
0FC0
ENDCHAR

STARTCHAR afii10103
ENCODING 246
SWIDTH 396 0
DWIDTH 13 0
BBX 11 26 1 0
BITMAP
1E00
1F00
3F00
3F00
1E00
0000
0000
1F00
FF00
3F00
1F00
1F00
1F00
1F00
1F00
1F00
1F00
1F00
1F00
1F00
1F00
1F00
1F00
1F00
FFE0
FFE0
ENDCHAR

STARTCHAR afii10104
ENCODING 247
SWIDTH 396 0
DWIDTH 13 0
BBX 11 25 1 0
BITMAP
F1E0
F1E0
F1E0
F1E0
0000
0000
0000
FF00
FF00
1F00
1F00
1F00
1F00
1F00
1F00
1F00
1F00
1F00
1F00
1F00
1F00
1F00
1F00
FFE0
FFE0
ENDCHAR

STARTCHAR afii10105
ENCODING 248
SWIDTH 375 0
DWIDTH 12 0
BBX 11 31 -2 -6
BITMAP
03C0
07E0
07E0
03E0
0180
0000
0000
1FE0
1FE0
07E0
03E0
03E0
03E0
03E0
03E0
03E0
03E0
03E0
03E0
03E0
03E0
03E0
03E0
03E0
03E0
03C0
63C0
F3C0
F380
FF00
3C00
ENDCHAR

STARTCHAR afii10106
ENCODING 249
SWIDTH 967 0
DWIDTH 32 0
BBX 31 18 0 0
BITMAP
07FFFC00
07FFFC00
01C1F000
01C1F000
0181F000
0181F000
0181F000
0181FFE0
0181FFF8
0181F07C
0181F03E
0181F03E
0181F03E
7181F03E
FB01F07E
FF01F0FC
7E0FFFF8
3C0FFFE0
ENDCHAR

STARTCHAR afii10107
ENCODING 250
SWIDTH 969 0
DWIDTH 32 0
BBX 30 18 1 0
BITMAP
FFCFF800
FFCFF800
1F03E000
1F03E000
1F03E000
1F03E000
1F03E000
1F03E000
1FFFFFC0
1FFFFFF0
1F03E0F8
1F03E07C
1F03E07C
1F03E07C
1F03E07C
1F03E0F8
FFCFFFF0
FFCFFFC0
ENDCHAR

STARTCHAR afii10108
ENCODING 251
SWIDTH 708 0
DWIDTH 23 0
BBX 22 25 1 0
BITMAP
3F0000
FF0000
3F0000
1F0000
FFFF00
FFFF00
1F0000
1F0F00
1F3FC0
1F7FC0
1FC7E0
1F83E0
1F03E0
1F03E0
1F03E0
1F03E0
1F03E0
1F03E0
1F03E0
1F03E0
1F03E0
1F03E0
1F03E0
FFCFFC
FFCFFC
ENDCHAR

STARTCHAR afii10109
ENCODING 252
SWIDTH 677 0
DWIDTH 22 0
BBX 21 25 1 0
BITMAP
001E00
003E00
003E00
007800
00C000
000000
000000
FFE0E0
FFE1F8
1F03F8
1F0378
1F0630
1F0600
1F0400
1F0C00
1FF800
1FFF00
1F1F00
1F0F80
1F0F80
1F07C0
1F07E0
1F03E0
FFE1F8
FFE1F8
ENDCHAR

STARTCHAR section
ENCODING 253
SWIDTH 531 0
DWIDTH 18 0
BBX 14 31 2 -6
BITMAP
07C0
1FF0
3878
7078
7078
7878
7C30
7E00
3F80
1FC0
3FE0
77F0
63F8
E1FC
F07C
F03C
FC3C
FE1C
7F18
3FB8
1FE0
0FF0
07F0
01F8
30F8
7878
7838
7838
7870
3FE0
0F80
ENDCHAR

STARTCHAR afii10110
ENCODING 254
SWIDTH 594 0
DWIDTH 20 0
BBX 20 31 0 -6
BITMAP
030600
070700
070700
038700
01FC00
000000
000000
FFC7F0
FFC7F0
3E01C0
1E0180
1F0180
1F0300
0F8300
0F8600
07C600
07C400
03EC00
03E800
03F800
01F800
01F000
00F000
00E000
006000
00C000
30C000
798000
798000
7F0000
3E0000
ENDCHAR

STARTCHAR afii10193
ENCODING 255
SWIDTH 708 0
DWIDTH 23 0
BBX 22 22 1 -4
BITMAP
FFCFFC
FFCFFC
1F03E0
1F03E0
1F03E0
1F03E0
1F03E0
1F03E0
1F03E0
1F03E0
1F03E0
1F03E0
1F03E0
1F03E0
1F03E0
1F03E0
FFFFFC
FFFFFC
007800
007000
003000
003000
ENDCHAR
ENDFONT
